<svg width="18" height="13" viewBox="0 0 18 13" fill="none" xmlns="http://www.w3.org/2000/svg">
<path d="M7.875 13C7.875 13 6.75 13 6.75 11.9167C6.75 10.8333 7.875 7.58333 12.375 7.58333C16.875 7.58333 18 10.8333 18 11.9167C18 13 16.875 13 16.875 13H7.875ZM12.375 6.5C13.2701 6.5 14.1286 6.15759 14.7615 5.5481C15.3944 4.9386 15.75 4.11195 15.75 3.25C15.75 2.38805 15.3944 1.5614 14.7615 0.951903C14.1286 0.34241 13.2701 0 12.375 0C11.4799 0 10.6214 0.34241 9.98851 0.951903C9.35558 1.5614 9 2.38805 9 3.25C9 4.11195 9.35558 4.9386 9.98851 5.5481C10.6214 6.15759 11.4799 6.5 12.375 6.5ZM5.868 13C5.70122 12.6618 5.61805 12.291 5.625 11.9167C5.625 10.4488 6.39 8.9375 7.803 7.88667C7.09773 7.67741 6.36294 7.57507 5.625 7.58333C1.125 7.58333 0 10.8333 0 11.9167C0 13 1.125 13 1.125 13H5.868ZM5.0625 6.5C5.80842 6.5 6.52379 6.21466 7.05124 5.70675C7.57868 5.19884 7.875 4.50996 7.875 3.79167C7.875 3.07337 7.57868 2.3845 7.05124 1.87659C6.52379 1.36867 5.80842 1.08333 5.0625 1.08333C4.31658 1.08333 3.60121 1.36867 3.07376 1.87659C2.54632 2.3845 2.25 3.07337 2.25 3.79167C2.25 4.50996 2.54632 5.19884 3.07376 5.70675C3.60121 6.21466 4.31658 6.5 5.0625 6.5Z" fill="#FFFEFE"/>
</svg>
