<svg width="15" height="18" viewBox="0 0 15 18" fill="none" xmlns="http://www.w3.org/2000/svg">
<path d="M14.3182 0H0.681818C0.304688 0 0 0.287277 0 0.642857V5.14286H15V0.642857C15 0.287277 14.6953 0 14.3182 0ZM2.72727 3.375C2.25639 3.375 1.875 3.0154 1.875 2.57143C1.875 2.12746 2.25639 1.76786 2.72727 1.76786C3.19815 1.76786 3.57955 2.12746 3.57955 2.57143C3.57955 3.0154 3.19815 3.375 2.72727 3.375ZM0 17.3571C0 17.7127 0.304688 18 0.681818 18H14.3182C14.6953 18 15 17.7127 15 17.3571V12.8571H0V17.3571ZM2.72727 14.625C3.19815 14.625 3.57955 14.9846 3.57955 15.4286C3.57955 15.8725 3.19815 16.2321 2.72727 16.2321C2.25639 16.2321 1.875 15.8725 1.875 15.4286C1.875 14.9846 2.25639 14.625 2.72727 14.625ZM0 11.5714H15V6.42857H0V11.5714ZM2.72727 8.19643C3.19815 8.19643 3.57955 8.55603 3.57955 9C3.57955 9.44397 3.19815 9.80357 2.72727 9.80357C2.25639 9.80357 1.875 9.44397 1.875 9C1.875 8.55603 2.25639 8.19643 2.72727 8.19643Z" fill="#FFFCFC"/>
</svg>
