<svg width="16" height="20" viewBox="0 0 16 20" fill="none" xmlns="http://www.w3.org/2000/svg">
<mask id="mask0_102_17" style="mask-type:luminance" maskUnits="userSpaceOnUse" x="0" y="0" width="16" height="20">
<path d="M14.125 1.25H1.875C1.39175 1.25 1 1.64175 1 2.125V17.875C1 18.3582 1.39175 18.75 1.875 18.75H14.125C14.6082 18.75 15 18.3582 15 17.875V2.125C15 1.64175 14.6082 1.25 14.125 1.25Z" fill="white" stroke="white" stroke-width="2" stroke-linejoin="round"/>
<path d="M6.6875 5.625H11.9375M6.6875 10H11.9375M6.6875 14.375H11.9375" stroke="black" stroke-width="2" stroke-linecap="round" stroke-linejoin="round"/>
<path fill-rule="evenodd" clip-rule="evenodd" d="M4.0625 6.5C4.29456 6.5 4.51712 6.40781 4.68122 6.24372C4.84531 6.07962 4.9375 5.85706 4.9375 5.625C4.9375 5.39294 4.84531 5.17038 4.68122 5.00628C4.51712 4.84219 4.29456 4.75 4.0625 4.75C3.83044 4.75 3.60788 4.84219 3.44378 5.00628C3.27969 5.17038 3.1875 5.39294 3.1875 5.625C3.1875 5.85706 3.27969 6.07962 3.44378 6.24372C3.60788 6.40781 3.83044 6.5 4.0625 6.5ZM4.0625 10.875C4.29456 10.875 4.51712 10.7828 4.68122 10.6187C4.84531 10.4546 4.9375 10.2321 4.9375 10C4.9375 9.76794 4.84531 9.54538 4.68122 9.38128C4.51712 9.21719 4.29456 9.125 4.0625 9.125C3.83044 9.125 3.60788 9.21719 3.44378 9.38128C3.27969 9.54538 3.1875 9.76794 3.1875 10C3.1875 10.2321 3.27969 10.4546 3.44378 10.6187C3.60788 10.7828 3.83044 10.875 4.0625 10.875ZM4.0625 15.25C4.29456 15.25 4.51712 15.1578 4.68122 14.9937C4.84531 14.8296 4.9375 14.6071 4.9375 14.375C4.9375 14.1429 4.84531 13.9204 4.68122 13.7563C4.51712 13.5922 4.29456 13.5 4.0625 13.5C3.83044 13.5 3.60788 13.5922 3.44378 13.7563C3.27969 13.9204 3.1875 14.1429 3.1875 14.375C3.1875 14.6071 3.27969 14.8296 3.44378 14.9937C3.60788 15.1578 3.83044 15.25 4.0625 15.25Z" fill="black"/>
</mask>
<g mask="url(#mask0_102_17)">
<path d="M-2.5 -0.5H18.5V20.5H-2.5V-0.5Z" fill="#B9B9B9"/>
</g>
</svg>
