<svg width="21" height="20" viewBox="0 0 21 20" fill="none" xmlns="http://www.w3.org/2000/svg">
<path fill-rule="evenodd" clip-rule="evenodd" d="M17.6842 0C18.5636 0 19.407 0.316071 20.0288 0.87868C20.6507 1.44129 21 2.20435 21 3V17C21 17.7957 20.6507 18.5587 20.0288 19.1213C19.407 19.6839 18.5636 20 17.6842 20H11.0525C10.1731 20 9.32971 19.6839 8.70788 19.1213C8.08604 18.5587 7.73669 17.7957 7.73669 17V3C7.73669 2.20435 8.08604 1.44129 8.70788 0.87868C9.32971 0.316071 10.1731 0 11.0525 0H17.6842ZM6.30757 5.293C6.1003 5.10553 5.81922 5.00021 5.52614 5.00021C5.23306 5.00021 4.95198 5.10553 4.74471 5.293L0.32361 9.293C0.116403 9.48053 9.05416e-07 9.73484 9.05416e-07 10C9.05416e-07 10.2652 0.116403 10.5195 0.32361 10.707L4.74471 14.707C4.95317 14.8892 5.23237 14.99 5.52217 14.9877C5.81196 14.9854 6.08918 14.8802 6.29411 14.6948C6.49904 14.5094 6.61528 14.2586 6.6178 13.9964C6.62031 13.7342 6.50891 13.4816 6.30757 13.293L3.77318 11H13.2631C13.5562 11 13.8373 10.8946 14.0446 10.7071C14.2519 10.5196 14.3683 10.2652 14.3683 10C14.3683 9.73478 14.2519 9.48043 14.0446 9.29289C13.8373 9.10536 13.5562 9 13.2631 9H3.77318L6.30757 6.707C6.51478 6.51947 6.63118 6.26516 6.63118 6C6.63118 5.73484 6.51478 5.48053 6.30757 5.293Z" fill="#D9D9D9"/>
</svg>
